<svg xmlns="http://www.w3.org/2000/svg" viewBox="0 0 512 512">
    <path d="M175.844 223.986v-56.027h-15.77v16.127h-8.122v15.77h8.122v24.13zM103.763 192.766l7.951 13.62a48.106 48.106 0 0124.231-6.532h.816v-15.77h-.816c-11.323.002-22.451 3.003-32.182 8.682zM72.037 250.281h15.77v30.381h-15.77zM101.458 214.407l-11.296-11.003a63.823 63.823 0 00-16.457 30.017l15.357 3.583a48.065 48.065 0 0112.396-22.597zM87.803 304.926v-8.908h-15.77v8.908c-18.237 3.671-32.014 19.813-32.014 39.115h15.77c0-13.306 10.825-24.13 24.129-24.13 13.306 0 24.13 10.825 24.13 24.13h15.77c.001-19.302-13.778-35.444-32.015-39.115zM351.926 167.959h-15.77v56.027h15.77v-24.13h8.122v-15.77h-8.122zM408.237 192.766a63.904 63.904 0 00-32.181-8.682h-.816v15.77h.816c8.532 0 16.911 2.258 24.231 6.532l7.95-13.62zM438.295 233.419a63.832 63.832 0 00-16.457-30.017l-11.296 11.004a48.048 48.048 0 0112.395 22.595l15.358-3.582zM424.193 250.281h15.77v30.381h-15.77zM439.967 304.926v-8.908h-15.77v8.908c-18.237 3.671-32.015 19.813-32.015 39.115h15.77c0-13.306 10.825-24.13 24.13-24.13s24.129 10.825 24.129 24.13h15.77c.001-19.302-13.777-35.444-32.014-39.115zM239.988 112.051h32.014v15.77h-32.014zM232.103 31.896h15.77V63.91h-15.77zM264.127 31.896h15.77V63.91h-15.77zM200.09 408.076h15.77v32.014h-15.77zM200.092 392.063h15.77v-8.123h16.127v-15.77h-48.022v15.77h16.125zM328.033 368.17h-48.022v15.77h16.127v8.123h15.77v-8.123h16.125zM296.14 408.076h15.77v32.014h-15.77zM215.862 465.002v-8.91h-15.77v8.91c-18.238 3.669-32.014 19.811-32.014 39.113V512h79.799v-7.885c0-19.301-13.777-35.444-32.015-39.113zm-30.691 31.228c3.275-9.444 12.262-16.244 22.807-16.244 10.545 0 19.533 6.8 22.808 16.244h-45.615zM311.908 465.002v-8.91h-15.77v8.91c-18.238 3.669-32.015 19.811-32.015 39.113V512h79.799v-7.885c0-19.301-13.778-35.444-32.014-39.113zm-30.694 31.228c3.275-9.444 12.263-16.244 22.808-16.244s19.532 6.8 22.807 16.244h-45.615z"/>
    <path d="M208.096 151.833h40.019v16.245h-64.029v191.851h143.83V168.078h-64.031v-16.245h40.018V39.781h24.129v-15.77h-24.129V0h-95.807v24.011h-24.129v15.77h24.129v112.052zm104.048 32.015v160.311h-48.259v-81.262c13.786-3.52 24.011-16.042 24.011-30.908 0-17.588-14.309-31.896-31.896-31.896-17.588 0-31.896 14.309-31.896 31.896 0 14.867 10.225 27.389 24.011 30.908v81.262h-48.259V183.848h112.288zM256 248.115c-8.892 0-16.126-7.234-16.126-16.126 0-8.892 7.234-16.126 16.126-16.126s16.126 7.234 16.126 16.126c0 8.892-7.234 16.126-16.126 16.126zM223.867 15.77h64.267v120.293h-64.267V15.77z"/>
</svg>
